<svg width="100" height="34" viewBox="0 0 100 34" fill="none" xmlns="http://www.w3.org/2000/svg">
<rect x="0.5" y="0.5" width="99" height="33" rx="16.5" fill="#F3691B" stroke="black"/>
<path d="M36.264 10.456H38.376V12.408H41.192V10.456H43.272V17.56H36.264V10.456ZM38.376 14.056V15.88H41.192V14.056H38.376ZM42.792 13.096H46.392V14.824H42.792V13.096ZM45.912 9.608H48.04V18.184H45.912V9.608ZM38.168 18.792H48.04V24.264H38.168V18.792ZM45.96 20.456H40.264V22.584H45.96V20.456ZM59.6388 11.448H62.2308V13.176H59.6388V11.448ZM59.6388 14.696H62.2308V16.424H59.6388V14.696ZM58.4228 9.848H60.3748V18.152H58.4228V9.848ZM61.3828 9.608H63.3668V18.216H61.3828V9.608ZM52.8708 18.824H63.3668V24.264H52.8708V18.824ZM61.2708 20.472H54.9508V22.584H61.2708V20.472ZM51.7348 10.408H53.1588V12.008C53.1588 14.12 52.8068 16.568 50.9828 17.672L49.9908 16.184C51.3988 15.224 51.7348 13.48 51.7348 12.008V10.408ZM52.1828 10.408H53.5748V12.008C53.5748 13.384 53.8148 15.224 55.1588 16.312L54.3108 17.864C52.4068 16.632 52.1828 13.976 52.1828 12.008V10.408ZM55.0468 10.408H56.4388V12.008C56.4388 14.024 56.1988 16.632 54.3108 17.864L53.4628 16.312C54.8068 15.224 55.0468 13.448 55.0468 12.008V10.408ZM55.4628 10.408H56.9028V12.008C56.9028 13.512 57.2388 15.24 58.6308 16.184L57.6388 17.672C55.8148 16.568 55.4628 14.136 55.4628 12.008V10.408Z" fill="white"/>
</svg>
