<svg width="100" height="34" viewBox="0 0 100 34" fill="none" xmlns="http://www.w3.org/2000/svg">
<rect x="0.5" y="0.5" width="99" height="33" rx="16.5" fill="#73F7EF" stroke="black"/>
<path d="M32.608 10.632C34.864 10.632 36.496 12.68 36.496 15.912C36.496 19.176 34.864 21.224 32.608 21.224C30.352 21.224 28.72 19.176 28.72 15.912C28.72 12.68 30.352 10.632 32.608 10.632ZM32.608 12.568C31.504 12.568 30.768 13.736 30.768 15.912C30.768 18.12 31.504 19.304 32.608 19.304C33.712 19.304 34.464 18.12 34.464 15.912C34.464 13.736 33.712 12.568 32.608 12.568ZM39.68 13.048H42.288V14.808H39.68V13.048ZM39.68 17.4H42.288V19.144H39.68V17.4ZM38.112 9.608H40.256V24.424H38.112V9.608ZM43.3588 17.896H56.7828V19.592H43.3588V17.896ZM48.9588 18.984H51.0708V24.424H48.9588V18.984ZM44.9108 10.328H55.1828V16.312H44.9108V10.328ZM53.0868 12.008H47.0068V14.632H53.0868V12.008ZM66.1415 9.848H68.0935V18.152H66.1415V9.848ZM67.2455 13.064H69.8535V14.792H67.2455V13.064ZM69.1015 9.608H71.0855V18.216H69.1015V9.608ZM60.5895 18.824H71.0855V24.264H60.5895V18.824ZM68.9895 20.488H62.6695V22.584H68.9895V20.488ZM59.4535 10.408H60.8775V12.008C60.8775 14.12 60.5255 16.568 58.7015 17.672L57.7095 16.184C59.1175 15.224 59.4535 13.48 59.4535 12.008V10.408ZM59.9015 10.408H61.2935V12.008C61.2935 13.384 61.5335 15.224 62.8775 16.312L62.0295 17.864C60.1255 16.632 59.9015 13.976 59.9015 12.008V10.408ZM62.7655 10.408H64.1575V12.008C64.1575 14.024 63.9175 16.632 62.0295 17.864L61.1815 16.312C62.5255 15.224 62.7655 13.448 62.7655 12.008V10.408ZM63.1815 10.408H64.6215V12.008C64.6215 13.512 64.9575 15.24 66.3495 16.184L65.3575 17.672C63.5335 16.568 63.1815 14.136 63.1815 12.008V10.408Z" fill="white"/>
</svg>
