<svg width="100" height="34" viewBox="0 0 100 34" fill="none" xmlns="http://www.w3.org/2000/svg">
<rect x="0.5" y="0.5" width="99" height="33" rx="16.5" fill="#B7B7B7" stroke="black"/>
<path d="M32.0114 24V12.3636H39.8523V14.392H34.4716V17.1648H39.4489V19.1932H34.4716V21.9716H39.875V24H32.0114Z" fill="#4AFBFB"/>
<path d="M48.9957 12.3636H51.456V19.9205C51.456 20.7689 51.2533 21.5114 50.848 22.1477C50.4465 22.7841 49.884 23.2803 49.1605 23.6364C48.437 23.9886 47.5942 24.1648 46.6321 24.1648C45.6662 24.1648 44.8215 23.9886 44.098 23.6364C43.3745 23.2803 42.812 22.7841 42.4105 22.1477C42.009 21.5114 41.8082 20.7689 41.8082 19.9205V12.3636H44.2685V19.7102C44.2685 20.1534 44.3651 20.5473 44.5582 20.892C44.7552 21.2367 45.0317 21.5076 45.3878 21.7045C45.7438 21.9015 46.1586 22 46.6321 22C47.1094 22 47.5241 21.9015 47.8764 21.7045C48.2325 21.5076 48.5071 21.2367 48.7003 20.892C48.8973 20.5473 48.9957 20.1534 48.9957 19.7102V12.3636ZM55.9403 12.3636V24H53.4801V12.3636H55.9403ZM62.0895 24H57.9645V12.3636H62.1236C63.294 12.3636 64.3016 12.5966 65.1463 13.0625C65.991 13.5246 66.6406 14.1894 67.0952 15.0568C67.5535 15.9242 67.7827 16.9621 67.7827 18.1705C67.7827 19.3826 67.5535 20.4242 67.0952 21.2955C66.6406 22.1667 65.9872 22.8352 65.1349 23.3011C64.2865 23.767 63.2713 24 62.0895 24ZM60.4247 21.892H61.9872C62.7145 21.892 63.3262 21.7633 63.8224 21.5057C64.3224 21.2443 64.6974 20.8409 64.9474 20.2955C65.2012 19.7462 65.3281 19.0379 65.3281 18.1705C65.3281 17.3106 65.2012 16.608 64.9474 16.0625C64.6974 15.517 64.3243 15.1155 63.8281 14.858C63.3319 14.6004 62.7202 14.4716 61.9929 14.4716H60.4247V21.892Z" fill="#6054F2"/>
</svg>
