<svg width="100" height="34" viewBox="0 0 100 34" fill="none" xmlns="http://www.w3.org/2000/svg">
<rect x="0.5" y="0.5" width="99" height="33" rx="16.5" fill="#FFAEF7" stroke="black"/>
<path d="M34.256 9.72H36.048V9.992C36.048 12.488 33.824 14.456 30 14.888L29.296 13.288C32.64 12.952 34.256 11.448 34.256 9.992V9.72ZM34.624 9.72H36.432V9.992C36.432 11.448 38.032 12.952 41.376 13.288L40.672 14.888C36.848 14.456 34.624 12.488 34.624 9.992V9.72ZM28.64 15.464H42.032V17.144H28.64V15.464ZM30.176 18.008H40.416V21.864H32.288V23.128H30.192V20.392H38.32V19.592H30.176V18.008ZM30.192 22.728H40.8V24.328H30.192V22.728ZM53.5188 9.592H55.6628V24.456H53.5188V9.592ZM44.0948 10.776H46.2068V14.376H49.2628V10.776H51.3748V21H44.0948V10.776ZM46.2068 16.024V19.288H49.2628V16.024H46.2068ZM66.1415 9.848H68.0935V18.152H66.1415V9.848ZM67.2455 13.064H69.8535V14.792H67.2455V13.064ZM69.1015 9.608H71.0855V18.216H69.1015V9.608ZM60.5895 18.824H71.0855V24.264H60.5895V18.824ZM68.9895 20.488H62.6695V22.584H68.9895V20.488ZM59.4535 10.408H60.8775V12.008C60.8775 14.12 60.5255 16.568 58.7015 17.672L57.7095 16.184C59.1175 15.224 59.4535 13.48 59.4535 12.008V10.408ZM59.9015 10.408H61.2935V12.008C61.2935 13.384 61.5335 15.224 62.8775 16.312L62.0295 17.864C60.1255 16.632 59.9015 13.976 59.9015 12.008V10.408ZM62.7655 10.408H64.1575V12.008C64.1575 14.024 63.9175 16.632 62.0295 17.864L61.1815 16.312C62.5255 15.224 62.7655 13.448 62.7655 12.008V10.408ZM63.1815 10.408H64.6215V12.008C64.6215 13.512 64.9575 15.24 66.3495 16.184L65.3575 17.672C63.5335 16.568 63.1815 14.136 63.1815 12.008V10.408Z" fill="white"/>
</svg>
